# xmcd
#
# Track frame offsets: 
#        150
#        15263
#        41495
#        62663
#        78353
#        92033
#        106013
#        123900
#        150603
#        169353
#
# Disc length: 2437 seconds
#
# Revision: 0
# Processed by: cddbd v1.4PL0 Copyright (c) Steve Scherf et al.
# Submitted via: ExactAudioCopy v0.90b3
#
DISCID=6b09830a
DTITLE=Jørn Hoel - Love will make you do things that you know is wrong
DYEAR=1989
DGENRE=
TTITLE0=My Babe
TTITLE1=Got my mojo Working
TTITLE2=Lean on me
TTITLE3=I don't play
TTITLE4=Songs for young lovers
TTITLE5=Love in vain
TTITLE6=I'll come running back to you
TTITLE7=Lonely Avenue
TTITLE8=One for my baby
TTITLE9=Love will make you do things that you know is wrong
EXTD=
EXTT0=
EXTT1=
EXTT2=
EXTT3=
EXTT4=
EXTT5=
EXTT6=
EXTT7=
EXTT8=
EXTT9=
PLAYORDER=
